<svg width="71" height="71" viewBox="0 0 71 71" fill="none" xmlns="http://www.w3.org/2000/svg">
<path d="M48.7158 33.2161L47.0364 30.9357C44.5145 27.5662 42.0968 26 35.9914 26H35.525C29.4318 26 27.0142 27.5662 24.4799 30.9357L22.9623 33.1055M22.995 44.6633V46.1484C22.995 46.359 22.9541 46.5675 22.8749 46.7621C22.7956 46.9566 22.6795 47.1334 22.533 47.2823C22.3866 47.4312 22.2128 47.5494 22.0214 47.63C21.8301 47.7105 21.6251 47.752 21.418 47.752H19.7183C19.5112 47.752 19.3062 47.7105 19.1148 47.63C18.9235 47.5494 18.7495 47.4312 18.6031 47.2823C18.4567 47.1334 18.3406 46.9566 18.2614 46.7621C18.1821 46.5675 18.1412 46.359 18.1412 46.1484V41.7368M48.3864 44.6633V46.1484C48.3864 46.5726 48.5517 46.9795 48.8461 47.2801C49.1406 47.5807 49.5401 47.7504 49.9573 47.752H51.6263C52.0435 47.7504 52.443 47.5807 52.7374 47.2801C53.0318 46.9795 53.1972 46.5726 53.1972 46.1484V41.7368M23.7682 35.9712C23.7682 35.9712 22.6145 39.1411 26.1796 39.6714M47.7359 35.9712C47.7359 35.9712 48.8957 39.1411 45.3244 39.6714M31.9967 39.6714H39.0288M32.6287 42.4669H38.3967M23.3203 32.4145C23.3203 33.8684 17 33.8684 17 32.4145C17 30.9606 18.4113 29.7688 20.1601 29.7688C21.9089 29.7688 23.3203 30.9357 23.3203 32.4145ZM48.2514 32.4145C48.2514 33.8684 54.5717 33.8684 54.5717 32.4145C54.5717 30.9606 53.1603 29.7688 51.4115 29.7688C49.6627 29.7688 48.2514 30.9357 48.2514 32.4145ZM50.8961 34.7233C49.8297 33.5619 48.358 32.8719 46.7971 32.8014H24.5781C23.0174 32.8732 21.5463 33.563 20.4791 34.7233C18.7488 36.5328 18.2149 39.0474 18.1658 41.4935C18.1307 42.0875 18.2469 42.6807 18.5033 43.2157C18.8654 43.902 27.7076 45.7927 35.6846 45.7927C43.6616 45.7927 52.5467 43.8209 52.8658 43.2157C53.1203 42.6802 53.2345 42.087 53.1972 41.4935C53.1604 39.0474 52.6265 36.5515 50.8961 34.7233Z" stroke="#052224" stroke-width="1.97746" stroke-linecap="round" stroke-linejoin="round"/>
<circle cx="35.5001" cy="35.5003" r="33.0095" transform="rotate(-87.7272 35.5001 35.5003)" stroke="#F1FFF3" stroke-width="2.32461" stroke-linejoin="round"/>
<path d="M37.0507 2.29396C55.267 3.01695 69.444 18.4743 68.7159 36.8189C67.9878 55.1634 52.6304 69.4486 34.4141 68.7256" stroke="#0068FF" stroke-width="3.25446" stroke-linecap="round" stroke-linejoin="round"/>
</svg>
