<svg width="84" height="78" viewBox="0 0 84 78" fill="none" xmlns="http://www.w3.org/2000/svg">
<rect width="84" height="78" rx="22" fill="#6DB6FE"/>
<path d="M49.6526 38.5689L38.6872 45.5968C38.5473 45.6864 38.369 45.6903 38.2253 45.6067L24.206 37.4524C23.9195 37.2857 23.9107 36.875 24.1898 36.6963L46.7864 22.2214C46.9263 22.1318 47.1045 22.1279 47.2481 22.2114L61.2672 30.3594C61.5538 30.526 61.5627 30.9367 61.2837 31.1155L54.5863 35.407M49.6592 44.0955L38.6871 51.1235C38.5472 51.2131 38.369 51.217 38.2254 51.1335L24.2059 42.9853C23.9194 42.8188 23.9104 42.4082 24.1893 42.2292L28.1037 39.718M57.3698 33.6268L61.267 35.8924C61.5537 36.0591 61.5625 36.4699 61.2832 36.6487L54.527 40.9735M57.6337 38.9807L61.2964 41.2476C61.5737 41.4192 61.5769 41.8215 61.3023 41.9974L38.6872 56.4906C38.5473 56.5802 38.369 56.5841 38.2253 56.5005L24.206 48.3462C23.9195 48.1795 23.9107 47.7688 24.1898 47.59L27.9652 45.1716M39.8872 26.9277L54.3066 35.3121C54.443 35.3914 54.527 35.5373 54.527 35.6952V46.0918C54.527 46.2427 54.4502 46.3833 54.3231 46.4648L50.3415 49.0184C50.0466 49.2076 49.6592 48.9958 49.6592 48.6454V38.8237C49.6592 38.6659 49.5753 38.5201 49.4389 38.4407L35.4119 30.2782C35.1256 30.1116 35.1167 29.7012 35.3955 29.5223L39.4253 26.9378C39.5652 26.8481 39.7435 26.8442 39.8872 26.9277Z" stroke="#F1FFF3" stroke-width="1.77237" stroke-linecap="round" stroke-linejoin="round"/>
</svg>
